<?xml version="1.0" encoding="UTF-8"?>
<svg id="Layer_2" data-name="Layer 2" xmlns="http://www.w3.org/2000/svg" xmlns:xlink="http://www.w3.org/1999/xlink" viewBox="0 0 120.53 107.51">
  <defs>
    <style>
      .cls-1, .cls-2, .cls-3, .cls-4, .cls-5, .cls-6, .cls-7, .cls-8, .cls-9, .cls-10, .cls-11, .cls-12 {
        stroke-width: 0px;
      }

      .cls-1, .cls-13 {
        fill: #2da7dd;
      }

      .cls-14 {
        stroke: #fff;
        stroke-width: 1.44px;
      }

      .cls-14, .cls-15 {
        stroke-miterlimit: 10;
      }

      .cls-14, .cls-10 {
        fill: #1e1e1e;
      }

      .cls-2 {
        fill: #61bfe3;
      }

      .cls-15 {
        fill: none;
        stroke: #080a09;
        stroke-width: .09px;
      }

      .cls-16, .cls-5 {
        opacity: .5;
      }

      .cls-3, .cls-12 {
        fill: #1b6180;
      }

      .cls-4 {
        fill: #cdecf7;
      }

      .cls-5 {
        fill: #95d9ee;
      }

      .cls-6 {
        fill: #fff;
      }

      .cls-17 {
        clip-path: url(#clippath);
      }

      .cls-7 {
        fill: #84cbe8;
      }

      .cls-8 {
        fill: #0294c2;
      }

      .cls-9 {
        fill: #080a09;
      }

      .cls-11 {
        fill: #0d5f7d;
      }

      .cls-12 {
        opacity: .4;
      }
    </style>
    <clipPath id="clippath">
      <path class="cls-1" d="m43.77,54.77s10.45-8.02,22.95-7.46c11.1.56,17.17,4.39,19.6,7.46,0,0-3.83,10.64-22.02,10.45-6.72-.47-14.18-2.89-20.53-7.93,0,0-2.05,6.53-11.1,4.11,0,0,2.24-4.6,4.95-5.14,0,0-4.57-2.88-4.95-5.21,0,0,7.65-2.89,11.1,3.73Z"/>
    </clipPath>
  </defs>
  <g id="Layer_1-2" data-name="Layer 1">
    <g>
      <g>
        <polygon class="cls-8" points="107.72 60.27 103.72 63.67 107.14 67.66 102.66 70.4 105.42 74.87 100.56 76.87 102.58 81.72 97.46 82.93 98.7 88.04 93.46 88.44 93.88 93.67 88.64 93.25 88.25 98.49 83.14 97.26 81.93 102.37 77.08 100.35 75.08 105.21 70.61 102.45 67.87 106.93 63.88 103.51 60.48 107.51 57.07 103.51 53.09 106.93 50.35 102.45 45.87 105.21 43.87 100.35 39.02 102.37 37.81 97.25 32.7 98.49 32.31 93.25 27.07 93.67 27.49 88.43 22.25 88.04 23.49 82.93 18.38 81.72 20.39 76.87 15.53 74.87 18.29 70.4 13.81 67.66 17.24 63.67 13.23 60.27 17.24 56.86 13.81 52.88 18.29 50.14 15.54 45.66 20.39 43.66 18.38 38.81 23.49 37.6 22.26 32.49 27.5 32.1 27.07 26.86 32.31 27.28 32.71 22.04 37.81 23.28 39.02 18.17 43.88 20.18 45.87 15.33 50.35 18.08 53.09 13.6 57.07 17.03 60.48 13.02 63.88 17.03 67.87 13.6 70.61 18.08 75.08 15.33 77.08 20.18 81.93 18.17 83.14 23.28 88.25 22.05 88.65 27.29 93.88 26.86 93.46 32.1 98.7 32.5 97.46 37.6 102.58 38.81 100.56 43.67 105.42 45.66 102.66 50.14 107.14 52.88 103.72 56.86 107.72 60.27"/>
        <circle class="cls-10" cx="60.48" cy="60.27" r="43.32"/>
        <circle class="cls-14" cx="60.48" cy="60.27" r="35.43"/>
        <circle class="cls-7" cx="60.48" cy="60.27" r="31.36"/>
        <g>
          <g id="_Radial_Repeat_" data-name="&amp;lt;Radial Repeat&amp;gt;">
            <g>
              <path class="cls-10" d="m25.39,92.27l-8.52,6.23c-1.66,1.24-1.33,2.21-.56,3l1.66,1.7c.76.78,1.91,1.14,3.19-.49l6.26-8.36c1.24.48,2.7.23,3.71-.76,1.38-1.35,1.41-3.57.06-4.95s-3.57-1.41-4.95-.06c-1.01.99-1.3,2.44-.85,3.69Z"/>
              <g>
                <path class="cls-6" d="m20.57,102.06c1.4-1.62,4.83-5.94,4.83-5.94,0,0-2.98,3.26-5.14,5.04-.89.73-1.69.76-2.3.81,0,0,1.09,1.85,2.62.09Z"/>
                <path class="cls-6" d="m31.23,92.09c-1.36,1.25-3.21,1.66-3.42,1.63,1.92.36,3.02-.81,3.42-1.63Z"/>
              </g>
            </g>
          </g>
          <g id="_Radial_Repeat_-2" data-name="&amp;lt;Radial Repeat&amp;gt;">
            <g>
              <path class="cls-10" d="m12.97,58.23l-10.42-1.62c-2.05-.3-2.5.63-2.52,1.72L0,60.71c-.01,1.09.54,2.16,2.6,1.91l10.33-1.48c.54,1.21,1.74,2.07,3.16,2.09,1.93.02,3.52-1.52,3.54-3.46s-1.52-3.52-3.46-3.54c-1.42-.02-2.65.81-3.21,2.01Z"/>
              <g>
                <path class="cls-6" d="m2.64,61.75c2.14-.15,7.61-.78,7.61-.78,0,0-4.41.2-7.2-.07-1.14-.11-1.73-.66-2.2-1.06,0,0-.54,2.08,1.79,1.91Z"/>
                <path class="cls-6" d="m17.24,62.24c-1.85-.08-3.45-1.1-3.57-1.26,1.1,1.62,2.71,1.56,3.57,1.26Z"/>
              </g>
            </g>
          </g>
          <g id="_Radial_Repeat_-3" data-name="&amp;lt;Radial Repeat&amp;gt;">
            <g>
              <path class="cls-10" d="m28.26,25.39l-6.23-8.52c-1.24-1.66-2.21-1.33-3-.56l-1.7,1.66c-.78.76-1.14,1.91.49,3.19l8.36,6.26c-.48,1.24-.23,2.7.76,3.71,1.35,1.38,3.57,1.41,4.95.06s1.41-3.57.06-4.95c-.99-1.01-2.44-1.3-3.69-.85Z"/>
              <g>
                <path class="cls-6" d="m18.47,20.57c1.62,1.4,5.94,4.83,5.94,4.83,0,0-3.26-2.98-5.04-5.14-.73-.89-.76-1.69-.81-2.3,0,0-1.85,1.09-.09,2.62Z"/>
                <path class="cls-6" d="m28.45,31.23c-1.25-1.36-1.66-3.21-1.63-3.42-.36,1.92.81,3.02,1.63,3.42Z"/>
              </g>
            </g>
          </g>
          <g id="_Radial_Repeat_-4" data-name="&amp;lt;Radial Repeat&amp;gt;">
            <g>
              <path class="cls-10" d="m62.3,12.97l1.62-10.42c.3-2.05-.63-2.5-1.72-2.52L59.83,0c-1.09-.01-2.16.54-1.91,2.6l1.48,10.33c-1.21.54-2.07,1.74-2.09,3.16-.02,1.93,1.52,3.52,3.46,3.54,1.93.02,3.52-1.52,3.54-3.46.02-1.42-.81-2.65-2.01-3.21Z"/>
              <g>
                <path class="cls-6" d="m58.78,2.64c.15,2.14.78,7.61.78,7.61,0,0-.2-4.41.07-7.2.11-1.14.66-1.73,1.06-2.2,0,0-2.08-.54-1.91,1.79Z"/>
                <path class="cls-6" d="m58.3,17.24c.08-1.85,1.1-3.45,1.26-3.57-1.62,1.1-1.56,2.71-1.26,3.57Z"/>
              </g>
            </g>
          </g>
          <g id="_Radial_Repeat_-5" data-name="&amp;lt;Radial Repeat&amp;gt;">
            <g>
              <path class="cls-10" d="m95.15,28.26l8.52-6.23c1.66-1.24,1.33-2.21.56-3l-1.66-1.7c-.76-.78-1.91-1.14-3.19.49l-6.26,8.36c-1.24-.48-2.7-.23-3.71.76-1.38,1.35-1.41,3.57-.06,4.95,1.35,1.38,3.57,1.41,4.95.06,1.01-.99,1.3-2.44.85-3.69Z"/>
              <g>
                <path class="cls-6" d="m99.97,18.47c-1.4,1.62-4.83,5.94-4.83,5.94,0,0,2.98-3.26,5.14-5.04.89-.73,1.69-.76,2.3-.81,0,0-1.09-1.85-2.62-.09Z"/>
                <path class="cls-6" d="m89.3,28.45c1.36-1.25,3.21-1.66,3.42-1.63-1.92-.36-3.02.81-3.42,1.63Z"/>
              </g>
            </g>
          </g>
          <g id="_Radial_Repeat_-6" data-name="&amp;lt;Radial Repeat&amp;gt;">
            <g>
              <path class="cls-10" d="m107.56,62.3l10.42,1.62c2.05.3,2.5-.63,2.52-1.72l.03-2.37c.01-1.09-.54-2.16-2.6-1.91l-10.33,1.48c-.54-1.21-1.74-2.07-3.16-2.09-1.93-.02-3.52,1.52-3.54,3.46s1.52,3.52,3.46,3.54c1.42.02,2.65-.81,3.21-2.01Z"/>
              <g>
                <path class="cls-6" d="m117.89,58.78c-2.14.15-7.61.78-7.61.78,0,0,4.41-.2,7.2.07,1.14.11,1.73.66,2.2,1.06,0,0,.54-2.08-1.79-1.91Z"/>
                <path class="cls-6" d="m103.3,58.3c1.85.08,3.45,1.1,3.57,1.26-1.1-1.62-2.71-1.56-3.57-1.26Z"/>
              </g>
            </g>
          </g>
          <g id="_Radial_Repeat_-7" data-name="&amp;lt;Radial Repeat&amp;gt;">
            <g>
              <path class="cls-10" d="m92.27,95.15l6.23,8.52c1.24,1.66,2.21,1.33,3,.56l1.7-1.66c.78-.76,1.14-1.91-.49-3.19l-8.36-6.26c.48-1.24.23-2.7-.76-3.71-1.35-1.38-3.57-1.41-4.95-.06s-1.41,3.57-.06,4.95c.99,1.01,2.44,1.3,3.69.85Z"/>
              <g>
                <path class="cls-6" d="m102.06,99.97c-1.62-1.4-5.94-4.83-5.94-4.83,0,0,3.26,2.98,5.04,5.14.73.89.76,1.69.81,2.3,0,0,1.85-1.09.09-2.62Z"/>
                <path class="cls-6" d="m92.09,89.3c1.25,1.36,1.66,3.21,1.63,3.42.36-1.92-.81-3.02-1.63-3.42Z"/>
              </g>
            </g>
          </g>
        </g>
      </g>
      <g>
        <rect class="cls-11" x="7.75" y="70.51" width="104.25" height="27.36"/>
        <g>
          <path class="cls-6" d="m52.71,90.91s0,1.26,0,1.26l-.91-1.25s-1.4,0-1.51,0c-.03.83.01,4.08.01,4.08h1.37c0-.4,0-1.24,0-1.24,0,0,.65,1.23.65,1.23,0,0,1.18.02,1.74.02v-4.08c-.44,0-1.35,0-1.35,0Z"/>
          <path class="cls-6" d="m66.49,93.44c.21,0,1.34-.01,1.34-.01,0,0,0-.67,0-.96-.45,0-1.34,0-1.34,0v-.26h1.46v-1.3h-3.01v4.07h3.02v-1.31h-1.46v-.25Z"/>
          <path class="cls-6" d="m72.88,94.99h1.56v-1.55h1.34c0-.25,0-.49,0-.73,0-.22,0-.24-.23-.23-.37,0-.74,0-1.11,0v-.26h1.46v-1.29h-3.02v4.07Z"/>
          <path class="cls-6" d="m63.94,92.53c-.13-.11-.26-.21-.35-.36-.1-.15-.07-.22.11-.3.08-.04.17-.03.27-.05-.07-.34-.13-.67-.2-1,0,0-.14,0-.16,0-.06,0-.12,0-.18,0-.74,0-1.78.04-1.95.95-.14.74.37,1.18.86,1.63.03.03.07.07.09.11.22.35-.71.34-.87.34.06.4.11.79.17,1.18.24,0,.47,0,.7,0,.68-.02,1.61-.02,1.9-.77.25-.64.14-1.28-.4-1.74Z"/>
          <path class="cls-6" d="m34.67,92.53c-.13-.11-.26-.21-.35-.36-.1-.15-.07-.22.11-.3.08-.04.17-.03.27-.05-.07-.34-.13-.67-.2-1,0,0-.14,0-.16,0-.06,0-.12,0-.18,0-.74,0-1.78.04-1.95.95-.14.74.37,1.18.86,1.63.03.03.07.07.09.11.22.35-.71.34-.87.34.06.4.11.79.17,1.18.24,0,.47,0,.7,0,.68-.02,1.61-.02,1.9-.77.25-.64.14-1.28-.4-1.74Z"/>
          <path class="cls-6" d="m48.1,94.99h1.54v-4.07h-1.54v4.07Z"/>
          <path class="cls-6" d="m42.74,93.48c.62-.35.79-1.2.44-1.79-.28-.47-.78-.75-1.33-.77-.71-.02-1.42,0-2.12,0h-.18v4.07h1.55c0-.3-.01-.97,0-.97,0,0,.52.98.52.98h1.77c-.05-.07-.87-1.35-.89-1.37,0,0,.23-.13.25-.15Zm-1.29-.76c-.11,0-.22,0-.35,0v-.55s.28,0,.31,0c.14,0,.25.05.28.2.03.15-.08.33-.24.34Z"/>
          <path class="cls-6" d="m46.44,91.02c-.38-.12-.75-.1-1.15-.1-.41,0-.83,0-1.24,0h-.13v4.08c.5,0,.98,0,1.46,0,.28,0,.55.02.83-.04.37-.08.73-.27.97-.57.22-.28.36-.62.42-.98,0,0,0-.01,0-.02.04-.29.04-.59-.01-.89-.11-.64-.51-1.27-1.15-1.48Zm-.48,1.93c0,.06-.01.12-.03.18-.06.21-.27.18-.44.18v-.79s.14,0,.15,0c.08,0,.16,0,.22.06.1.09.11.24.1.36Z"/>
          <path class="cls-6" d="m89.15,92.9c-.01-.34-.09-.67-.22-.96-.02-.04-.04-.08-.06-.11-.15-.29-.38-.53-.67-.69-.24-.14-.5-.2-.77-.21-.22,0-.43,0-.65,0h-1.35v4.08c.57,0,1.13,0,1.68,0,.45,0,.92-.09,1.3-.35.55-.38.77-1.08.74-1.75Zm-1.71.23s0,.01,0,.02c-.03.09-.1.17-.2.17-.08,0-.15,0-.25,0,0-.27,0-.51,0-.79.08,0,.18,0,.26,0,.24.05.25.4.19.59Z"/>
          <path class="cls-6" d="m78.82,90.94c-.66-.19-1.32-.06-1.86.38-.28.23-.53.55-.66.89-.2.53-.16,1.23.13,1.72.17.29.41.54.69.74,1.02.71,2.47.25,3.03-.81.3-.56.29-1.18.05-1.71-.25-.57-.75-1.03-1.39-1.21Zm-.21,2.33c-.05.05-.12.09-.2.11-.28.07-.56-.14-.56-.42,0-.36.44-.6.74-.37.23.17.21.51.02.69Z"/>
          <path class="cls-6" d="m84.74,92c-.22-.42-.58-.76-1.01-.97-.7-.34-1.52-.2-2.13.25-.39.29-.65.72-.76,1.19-.12.51-.08,1.07.21,1.52.57.89,1.72,1.33,2.7.86.85-.41,1.38-1.4,1.18-2.33-.04-.18-.1-.35-.19-.52Zm-1.54,1.28s-.09.07-.14.09c-.3.12-.63-.12-.63-.43.03-.32.4-.59.69-.4.24.15.28.55.08.74Z"/>
          <path class="cls-6" d="m69.54,90.92s-1.14,3.93-1.22,4.08c.42,0,1.3,0,1.3,0l.23-.63h.86s.19.62.19.62c0,0,.98,0,1.41,0,.06,0,.2,0,.2,0l-1.16-4.08h-1.81Zm.53,2.56l.23-.82.2.82h-.43Z"/>
          <path class="cls-6" d="m55.45,90.92s-1.14,3.93-1.22,4.08c.42,0,1.3,0,1.3,0l.23-.63h.86s.19.62.19.62c0,0,.98,0,1.41,0,.06,0,.2,0,.2,0l-1.16-4.08h-1.81Zm.53,2.56l.23-.82.2.82h-.43Z"/>
          <path class="cls-6" d="m36.41,90.92s-1.14,3.93-1.22,4.08c.42,0,1.3,0,1.3,0l.23-.63h.86s.19.62.19.62c0,0,.98,0,1.41,0,.06,0,.2,0,.2,0l-1.16-4.08h-1.81Zm.53,2.56l.23-.82.2.82h-.43Z"/>
        </g>
        <g>
          <path class="cls-6" d="m20.26,84.15c0,.32-.11.51-.31.59-.06.02-.23.05-.51.05h-1.6c-.4,0-.68-.05-.86-.15-.23-.14-.35-.39-.35-.75v-1.06h-.85v1.06c0,1.16.69,1.74,2.05,1.74h2.24c.67,0,1.04-.38,1.04-1.02v-2.96h-.85v2.52Z"/>
          <path class="cls-6" d="m19.23,82.95h-.7c-.09-.03-.13-.12-.13-.25,0-.18.07-.27.21-.27.09,0,.16.06.2.19l.4-.19c-.12-.28-.32-.42-.6-.42-.4,0-.69.3-.69.72,0,.07.01.15.04.23h-.35v.46h1.61v-.47Z"/>
          <path class="cls-6" d="m32.2,84.23c0,.37-.15.56-.44.56h-.55c.07-.19.11-.4.11-.62v-1.35h-.87v1.42c0,.37-.15.56-.44.56h-.55c.07-.19.11-.4.11-.62v-1.35h-.87v1.38c0,.17-.01.27-.04.32-.07.18-.2.27-.4.27h-1.18c0-.91-.54-1.45-1.45-1.45s-1.4.56-1.4,1.45h-.77c-.64,0-.74-.22-.74-.64v-2.52h-.87v2.97c0,.64.38,1.02,1.04,1.02h1.59c.26.35.65.53,1.17.53s.9-.18,1.16-.53h4.98c.31,0,.59-.11.83-.33.3-.27.45-.65.45-1.13v-1.34h-.87v1.42Zm-6.55,1.21c-.36,0-.57-.3-.57-.71s.21-.7.53-.7h.06c.36,0,.55.25.55.74,0,.41-.21.67-.56.67Z"/>
          <path class="cls-6" d="m36.03,84.16c0,.41-.15.62-.44.63l-.77-2.74h-.91l.78,2.74h-.92v.83h2.05c.3,0,.56-.09.76-.28.2-.19.3-.43.3-.74v-2.97h-.85v2.52Z"/>
          <path class="cls-6" d="m34.87,81.37h-.48c-.06-.02-.09-.08-.09-.17,0-.12.05-.19.14-.19.07,0,.11.04.14.13l.28-.13c-.08-.19-.22-.29-.41-.29-.27,0-.46.22-.46.49,0,.05,0,.11.02.16h-.24v.32h1.11v-.32Z"/>
          <rect class="cls-6" x="37.51" y="81.63" width=".87" height="3.99"/>
          <rect class="cls-6" x="41.86" y="82.1" width=".77" height=".72"/>
          <path class="cls-6" d="m44.6,84.16c0,.29-.11.48-.31.57-.09.04-.26.06-.51.06h-1.59c-.4,0-.69-.05-.87-.15-.23-.13-.35-.38-.35-.75v-1.08h-.85v1.08c0,1.16.68,1.73,2.05,1.73h2.24c.67,0,1.04-.38,1.04-1.02v-1.78h-.85v1.34Z"/>
          <rect class="cls-6" x="43.03" y="82.1" width=".77" height=".72"/>
          <path class="cls-6" d="m48.35,84.16c0,.41-.15.62-.44.63l-.77-2.74h-.91l.78,2.74h-.92v.83h2.05c.3,0,.56-.09.76-.28.2-.19.3-.43.3-.74v-2.97h-.85v2.52Z"/>
          <path class="cls-6" d="m55.69,82.81h-.48l.78-1.17h-1.03l-1.24,1.97h1.56c.66,0,1.17.51,1.25,1.18h-3.98v-.56c0-.82-.58-1.42-1.37-1.42s-1.4.56-1.4,1.4.59,1.41,1.4,1.41c.29,0,.46-.01.53-.04-.07.24-.27.36-.6.36h-.07v.69h.09c.84,0,1.31-.34,1.41-1.02h4.93v-.32c0-1.45-.61-2.36-1.79-2.49Zm-3.99,1.98h-.5c-.32,0-.53-.27-.53-.62,0-.33.17-.58.5-.58s.53.23.53.6v.6Z"/>
          <path class="cls-6" d="m59.09,80.97h-.48c-.06-.02-.09-.08-.09-.17,0-.12.05-.19.14-.19.07,0,.11.04.14.13l.28-.13c-.08-.19-.22-.29-.41-.29-.27,0-.46.22-.46.49,0,.05,0,.11.02.16h-.24v.32h1.11v-.32Z"/>
          <path class="cls-6" d="m64.82,81.64v2.55c0,.4-.15.61-.44.61h-1.04c0-.91-.54-1.45-1.45-1.45s-1.4.56-1.4,1.45h-.77c-.64,0-.74-.22-.74-.64v-2.52h-.87v2.97c0,.64.38,1.02,1.04,1.02h1.59c.26.35.65.53,1.17.53s.9-.18,1.16-.53h1.48c.36,0,.65-.12.85-.38.18-.22.27-.49.27-.82v-2.79h-.87Zm-2.9,3.81c-.36,0-.58-.3-.58-.71s.21-.7.53-.7h.06c.36,0,.55.25.55.74,0,.41-.21.67-.56.67Z"/>
        </g>
        <g>
          <polygon class="cls-6" points="102.02 76.7 102.02 83.62 101.07 83.62 101.07 76.7 98.95 76.7 98.95 83.62 97.92 83.62 97.92 76.7 95.8 76.7 95.8 83.62 93.49 83.62 93.49 76.7 91.37 76.7 91.37 83.62 91.37 85.74 91.37 89.65 93.49 89.65 93.49 85.74 95.8 85.74 95.8 85.74 97.92 85.74 97.92 85.74 98.95 85.74 98.95 85.74 101.07 85.74 101.07 85.74 102.02 85.74 102.02 85.74 104.14 85.74 104.14 76.7 102.02 76.7"/>
          <polygon class="cls-6" points="80.58 83.62 76.19 83.62 76.19 76.51 74.07 76.51 74.07 83.62 70.63 83.62 70.63 71.94 68.51 71.94 68.51 83.62 68.51 83.62 68.51 85.74 80.58 85.74 82.7 85.74 82.7 83.62 82.7 76.51 80.58 76.51 80.58 83.62"/>
          <circle class="cls-6" cx="78.6" cy="87.61" r="1.32"/>
          <circle class="cls-6" cx="81.38" cy="87.61" r="1.32"/>
          <circle class="cls-6" cx="72.61" cy="75.19" r="1.32"/>
          <path class="cls-6" d="m88.77,76.7h-3.99v1.72s1.74,0,1.84,0c.66,0,1.18.56,1.28,1.19.06.39.01.8.01,1.19v2.83h-3.78v2.12h5.9v-9.05s-1.26,0-1.26,0Z"/>
        </g>
      </g>
      <g>
        <g>
          <path class="cls-13" d="m43.77,54.77s10.45-8.02,22.95-7.46c11.1.56,17.17,4.39,19.6,7.46,0,0-3.83,10.64-22.02,10.45-6.72-.47-14.18-2.89-20.53-7.93,0,0-2.05,6.53-11.1,4.11,0,0,2.24-4.6,4.95-5.14,0,0-4.57-2.88-4.95-5.21,0,0,7.65-2.89,11.1,3.73Z"/>
          <g class="cls-17">
            <path class="cls-2" d="m74.66,46.74s-4.57,7.47-.47,18.48c-25.47,1.58-43.95,0-43.95,0l-4.01-17.45,8.49-4.85,39.94,3.83Z"/>
            <path class="cls-3" d="m43.77,57.29s-1.77,5.37-8.3,2.85c0,0,.61-3.16,2.15-3.89,3.13.43,4.17.26,4.17.26-1.02-.18-4.77.87-6.72-4.82,0,0,6.28-1.45,8.52,2.73.3.57.62-.43.73-.61.44-.71-.54-4.98-.54-4.98l-12.94-2.36-5.79,7.78,1.8,10.98,15.18,3.45s2.99-4.67,2.99-5.04-1.24-6.35-1.24-6.35"/>
            <path class="cls-12" d="m86.32,54.77s-14,12.69-42.55,2.52c.09,6.35,14,8.3,14,8.3l21.93,1.87,7.28-11.21-.65-1.48"/>
            <path class="cls-5" d="m72.65,53.36c-2.1-1.34-13.06-7.52-24.46.9,0,0,14.44,9.19,24.39-.24.03-.21.04-.38.07-.66Z"/>
            <path class="cls-15" d="m86.32,54.77s-2.21,1-4.17.47"/>
          </g>
        </g>
        <g class="cls-16">
          <path class="cls-4" d="m69.75,51.94c.31,0,.59-.09.84-.23-.9,0-1.63-.73-1.63-1.63,0-.6.32-1.11.79-1.4,0,0,0,0,0,0-.9,0-1.63.73-1.63,1.63s.73,1.63,1.63,1.63Z"/>
          <path class="cls-4" d="m70.59,57.05c-.9,0-1.63-.73-1.63-1.63,0-.6.32-1.11.79-1.4,0,0,0,0,0,0-.9,0-1.63.73-1.63,1.63s.73,1.63,1.63,1.63c.31,0,.59-.09.84-.23Z"/>
          <path class="cls-4" d="m69.56,60.77c0-.6.32-1.11.79-1.4,0,0,0,0,0,0-.9,0-1.63.73-1.63,1.63s.73,1.63,1.63,1.63c.31,0,.59-.09.84-.23-.9,0-1.63-.73-1.63-1.63Z"/>
          <path class="cls-4" d="m66.49,58.5c0-.6.32-1.11.79-1.4,0,0,0,0,0,0-.9,0-1.63.73-1.63,1.63s.73,1.63,1.63,1.63c.31,0,.59-.09.84-.23-.9,0-1.63-.73-1.63-1.63Z"/>
          <path class="cls-4" d="m67.44,54.16c-.9,0-1.63-.73-1.63-1.63,0-.6.32-1.11.79-1.4,0,0,0,0,0,0-.9,0-1.63.73-1.63,1.63s.73,1.63,1.63,1.63c.31,0,.59-.09.84-.23Z"/>
          <path class="cls-4" d="m63.54,51.94c.31,0,.59-.09.84-.23-.9,0-1.63-.73-1.63-1.63,0-.6.32-1.11.79-1.4,0,0,0,0,0,0-.9,0-1.63.73-1.63,1.63s.73,1.63,1.63,1.63Z"/>
          <path class="cls-4" d="m64.38,57.05c-.9,0-1.63-.73-1.63-1.63,0-.6.32-1.11.79-1.4,0,0,0,0,0,0-.9,0-1.63.73-1.63,1.63s.73,1.63,1.63,1.63c.31,0,.59-.09.84-.23Z"/>
          <path class="cls-4" d="m63.34,60.77c0-.6.32-1.11.79-1.4,0,0,0,0,0,0-.9,0-1.63.73-1.63,1.63s.73,1.63,1.63,1.63c.31,0,.59-.09.84-.23-.9,0-1.63-.73-1.63-1.63Z"/>
          <path class="cls-4" d="m60.27,58.5c0-.6.32-1.11.79-1.4,0,0,0,0,0,0-.9,0-1.63.73-1.63,1.63s.73,1.63,1.63,1.63c.31,0,.59-.09.84-.23-.9,0-1.63-.73-1.63-1.63Z"/>
          <path class="cls-4" d="m61.23,54.16c-.9,0-1.63-.73-1.63-1.63,0-.6.32-1.11.79-1.4,0,0,0,0,0,0-.9,0-1.63.73-1.63,1.63s.73,1.63,1.63,1.63c.31,0,.59-.09.84-.23Z"/>
          <path class="cls-4" d="m57.27,52.48c.26,0,.51-.07.71-.2-.77,0-1.39-.62-1.39-1.39,0-.51.27-.95.68-1.19,0,0,0,0,0,0-.77,0-1.39.62-1.39,1.39s.62,1.39,1.39,1.39Z"/>
          <path class="cls-4" d="m57.98,56.85c-.77,0-1.39-.62-1.39-1.39,0-.51.27-.95.68-1.19,0,0,0,0,0,0-.77,0-1.39.62-1.39,1.39s.62,1.39,1.39,1.39c.26,0,.51-.07.71-.2Z"/>
          <path class="cls-4" d="m57.1,60.02c0-.51.27-.95.68-1.19,0,0,0,0,0,0-.77,0-1.39.62-1.39,1.39s.62,1.39,1.39,1.39c.26,0,.51-.07.71-.2-.77,0-1.39-.62-1.39-1.39Z"/>
          <path class="cls-4" d="m54.49,58.08c0-.51.27-.95.68-1.19,0,0,0,0,0,0-.77,0-1.39.62-1.39,1.39s.62,1.39,1.39,1.39c.26,0,.51-.07.71-.2-.77,0-1.39-.62-1.39-1.39Z"/>
          <path class="cls-4" d="m55.3,54.38c-.77,0-1.39-.62-1.39-1.39,0-.51.27-.95.68-1.19,0,0,0,0,0,0-.77,0-1.39.62-1.39,1.39s.62,1.39,1.39,1.39c.26,0,.51-.07.71-.2Z"/>
          <path class="cls-4" d="m51.47,53.6c.17,0,.33-.05.46-.13-.5,0-.9-.4-.9-.9,0-.33.18-.62.44-.77,0,0,0,0,0,0-.5,0-.9.4-.9.9s.4.9.9.9Z"/>
          <path class="cls-4" d="m51.93,56.43c-.5,0-.9-.4-.9-.9,0-.33.18-.62.44-.77,0,0,0,0,0,0-.5,0-.9.4-.9.9s.4.9.9.9c.17,0,.33-.05.46-.13Z"/>
          <path class="cls-4" d="m51.36,58.48c0-.33.18-.62.44-.77,0,0,0,0,0,0-.5,0-.9.4-.9.9s.4.9.9.9c.17,0,.33-.05.46-.13-.5,0-.9-.4-.9-.9Z"/>
          <path class="cls-4" d="m49.66,57.23c0-.33.18-.62.44-.77,0,0,0,0,0,0-.5,0-.9.4-.9.9s.4.9.9.9c.17,0,.33-.05.46-.13-.5,0-.9-.4-.9-.9Z"/>
          <path class="cls-4" d="m50.19,54.83c-.5,0-.9-.4-.9-.9,0-.33.18-.62.44-.77,0,0,0,0,0,0-.5,0-.9.4-.9.9s.4.9.9.9c.17,0,.33-.05.46-.13Z"/>
        </g>
        <path class="cls-3" d="m63.12,60.18s3.85-5.45,8.65,0c0,0-4.32,6.27-8.65,0Z"/>
        <circle class="cls-9" cx="79.7" cy="54.02" r=".84"/>
      </g>
    </g>
  </g>
</svg>